# xmcd CD database file
#
# Track frame offsets:
#	150
#	13970
#	27615
#	46150
#	58357
#	73527
#	90947
#	103397
#	117225
#	131472
#	143997
#	155817
#	167475
#	177507
#
# Disc length: 2709 seconds
#
# Revision: 4
# Processed by: cddbd v1.5.2PL0 Copyright (c) Steve Scherf et al.
# Submitted via: CDex 1.50
#
DISCID=cb0a930e
DTITLE=Eddy Raven and Jo-El Sonnier - Cookin' Cajun
DYEAR=1996
DGENRE=Country
TTITLE0=Jambalaya (On the Bayou)
TTITLE1=Colinda
TTITLE2=Tear-Stained Letter
TTITLE3=Fais Do Do
TTITLE4=Zydeco Lady
TTITLE5=No More One More Time
TTITLE6=Papa Thibodeaux
TTITLE7=Sugar Bee
TTITLE8=Cher Jole Blon
TTITLE9=Good Deal Lucille
TTITLE10=I'm Gonna Get You
TTITLE11=Diggy Liggy Lo
TTITLE12=Cher Big Mamou
TTITLE13=Louisiana 1927
EXTD=YEAR: 1996
EXTT0=
EXTT1=
EXTT2=
EXTT3=
EXTT4=
EXTT5=
EXTT6=
EXTT7=
EXTT8=
EXTT9=
EXTT10=
EXTT11=
EXTT12=
EXTT13=
PLAYORDER=
